<svg width="64" height="64" viewBox="0 0 64 64" fill="none" xmlns="http://www.w3.org/2000/svg">
<g clip-path="url(#clip0_99523_10)">
<path d="M31.9238 63.1977C49.1959 63.1977 63.1977 49.179 63.1977 31.886C63.1977 14.593 49.1959 0.574219 31.9238 0.574219C14.6517 0.574219 0.649963 14.593 0.649963 31.886C0.649963 49.179 14.6517 63.1977 31.9238 63.1977Z" fill="#494949" stroke="#494949"/>
<path d="M8.6001 34.3964V27.2284H10.6481V33.3724H14.7441V34.3964H8.6001Z" fill="#F0F3BD"/>
<path d="M18.838 28.2524V27.2284H20.886V28.2524H18.838ZM16.79 34.3964V33.3724H18.838V30.3004H17.814V29.2764H20.886V33.3724H22.934V34.3964H16.79Z" fill="#F0F3BD"/>
<path d="M23.958 34.3964V33.3724H29.078V32.3484H24.982V31.3244H23.958V30.3004H24.982V29.2764H30.102V30.3004H26.006V31.3244H30.102V32.3484H31.126V33.3724H30.102V34.3964H23.958Z" fill="#F0F3BD"/>
<path d="M33.174 34.3964V33.3724H32.15V27.2284H34.198V29.2764H38.294V30.3004H39.318V33.3724H38.294V34.3964H33.174ZM34.198 33.3724H37.27V30.3004H34.198V33.3724Z" fill="#F0F3BD"/>
<path d="M41.366 34.3964V33.3724H40.342V30.3004H41.366V29.2764H46.486V30.3004H47.51V33.3724H46.486V34.3964H41.366ZM42.39 33.3724H45.462V30.3004H42.39V33.3724Z" fill="#F0F3BD"/>
<path d="M49.5581 34.3964V33.3724H48.5341V32.3484H49.5581V31.3244H53.6541V30.3004H49.5581V29.2764H54.6781V30.3004H55.7021V34.3964H49.5581ZM50.5821 33.3724H53.6541V32.3484H50.5821V33.3724Z" fill="#F0F3BD"/>
</g>
<defs>
<clipPath id="clip0_99523_10">
<rect width="64" height="64" fill="white"/>
</clipPath>
</defs>
</svg>
